<svg width="101" height="34" viewBox="0 0 101 34" fill="none" xmlns="http://www.w3.org/2000/svg">
<g clip-path="url(#clip0_2425_22906)">
<path d="M28.9535 3.00662C28.9535 3.59173 28.6434 3.95899 28.3952 4.03921L28.2089 4.09662V4.21144C28.2089 4.21144 28.9535 4.32626 28.9535 5.30143V6.44884C28.9535 7.69927 28.3205 8.28437 26.9686 8.28437H21.5098V0.0236816H26.9686C28.3212 0.0236816 28.9535 0.608787 28.9535 1.85922V3.00662ZM27.465 1.85922C27.465 1.49195 27.3036 1.30793 26.9686 1.30793H22.9982V3.51072H26.9686C27.3284 3.51072 27.465 3.3613 27.465 3.00584V1.85843V1.85922ZM27.465 5.30143C27.465 4.94597 27.3284 4.79654 26.9686 4.79654H22.9982V6.99934H26.9686C27.3036 6.99934 27.465 6.81532 27.465 6.44884V5.30143Z" fill="white"/>
<path d="M34.4233 0.0236816L37.3639 8.28437H35.7887L35.0441 6.17359H31.4585L30.7018 8.28437H29.1387L32.0793 0.0236816H34.424H34.4233ZM31.9172 4.88856H34.5847L33.3068 1.30871H33.183L31.9172 4.88856Z" fill="white"/>
<path d="M43.4424 0.0236816V1.30871H40.4648V8.28437H38.9756V1.30871H35.998V0.0236816H43.4424Z" fill="white"/>
<path d="M49.9139 0.0236816C51.2665 0.0236816 51.8988 0.608787 51.8988 1.85922V6.44884C51.8988 7.69927 51.2659 8.28437 49.9139 8.28437H44.4551V0.0236816H49.9139ZM50.4103 1.85922C50.4103 1.49195 50.2489 1.30793 49.9139 1.30793H45.9436V6.99855H49.9139C50.2489 6.99855 50.4103 6.81453 50.4103 6.44805V1.85843V1.85922Z" fill="white"/>
<path d="M58.1014 0.0236816C59.4782 0.0236816 60.0863 0.608787 60.0863 1.85922V6.44884C60.0863 7.69927 59.4782 8.28437 58.1014 8.28437H54.6274C53.25 8.28437 52.6426 7.69927 52.6426 6.44884V1.85922C52.6426 0.608787 53.2506 0.0236816 54.6274 0.0236816H58.1014ZM58.5978 1.85922C58.5978 1.49195 58.4364 1.30793 58.1014 1.30793H54.6274C54.2925 1.30793 54.1311 1.49195 54.1311 1.85922V6.44884C54.1311 6.8161 54.2925 6.99934 54.6274 6.99934H58.1014C58.4364 6.99934 58.5978 6.81532 58.5978 6.44884V1.85922Z" fill="white"/>
<path d="M66.8478 0.0236816H68.3363V8.28437H65.7555L62.5048 1.30871H62.3811V8.28437H60.8926V0.0236816H63.4606L66.7234 6.99934H66.8471V0.0236816H66.8478Z" fill="white"/>
<path d="M76.5863 2.77698H75.0978V1.85922C75.0978 1.49195 74.9364 1.30793 74.6014 1.30793H71.1274C70.7925 1.30793 70.6311 1.49195 70.6311 1.85922V6.44884C70.6311 6.8161 70.7925 6.99934 71.1274 6.99934H74.6014C74.9364 6.99934 75.0978 6.81532 75.0978 6.44884V4.79654H72.8641V3.51151H76.5863V6.44884C76.5863 7.69927 75.9782 8.28437 74.6014 8.28437H71.1274C69.75 8.28437 69.1426 7.69927 69.1426 6.44884V1.85922C69.1426 0.608787 69.7506 0.0236816 71.1274 0.0236816H74.6014C75.9789 0.0236816 76.5863 0.608787 76.5863 1.85922V2.77698Z" fill="white"/>
<path d="M84.96 2.77698H83.4708V1.85922C83.4708 1.49195 83.3094 1.30793 82.9745 1.30793H79.5005C79.1655 1.30793 79.0041 1.49195 79.0041 1.85922C79.0041 2.19188 79.0041 2.2949 79.0539 2.48994C79.1158 2.74238 79.3021 2.88001 79.7487 3.01763L82.7263 3.9354C83.3464 4.13043 83.8058 4.31446 84.091 4.4859C84.6862 4.81856 84.9593 5.38086 84.9593 6.44805C84.9593 7.69848 84.3264 8.28358 82.9745 8.28358H79.5005C78.1479 8.28358 77.5156 7.69848 77.5156 6.44805V5.53028H79.0048V6.44805C79.0048 6.81532 79.1662 6.99855 79.5011 6.99855H82.9751C83.3101 6.99855 83.4715 6.81453 83.4715 6.44805C83.4715 6.11539 83.4715 6.01237 83.4217 5.81733C83.3598 5.56489 83.1735 5.42726 82.7269 5.28963L79.7493 4.37187C79.1292 4.17683 78.6698 4.0046 78.3725 3.83238C77.7893 3.47691 77.5163 2.9264 77.5163 1.85922C77.5163 0.608787 78.1492 0.0236816 79.5011 0.0236816H82.9751C84.3277 0.0236816 84.96 0.608787 84.96 1.85922V2.77698Z" fill="white"/>
<path d="M90.3673 0.0236816L93.3079 8.28437H91.732L90.9875 6.17359H87.4018L86.6452 8.28437H85.082L88.0226 0.0236816H90.3673ZM87.8612 4.88856H90.5287L89.2508 1.30871H89.127L87.8612 4.88856Z" fill="white"/>
<path d="M99.5125 0.0236816H101.002V8.28437H98.4208L95.1702 1.30871H95.0458V8.28437H93.5566V0.0236816H96.1253L99.3881 6.99934H99.5118V0.0236816H99.5125Z" fill="white"/>
<path d="M29.6114 31.4338H29.8532L34.6823 18.2351H37.7486L32.0263 33.9999H27.4626L21.7402 18.2351H24.7823L29.6114 31.4338Z" fill="white"/>
<path d="M50.2243 18.2351H53.1215V30.3336C53.1215 32.8313 51.8901 33.9999 49.2583 33.9999H42.4979C39.8661 33.9999 38.6348 32.8313 38.6348 30.3336V18.2351H41.532V30.3336C41.532 31.0673 41.8459 31.4338 42.4979 31.4338H49.2583C49.9104 31.4338 50.2243 31.0673 50.2243 30.3336V18.2351Z" fill="white"/>
<path d="M65.3423 18.2351C68.0226 18.2351 69.2054 19.4038 69.2054 21.9015V30.3344C69.2054 32.8321 68.0226 34.0007 65.3423 34.0007H58.5819C55.9016 34.0007 54.7188 32.8321 54.7188 30.3344V21.9015C54.7188 19.4038 55.9016 18.2351 58.5819 18.2351H65.3423ZM66.3082 21.9015C66.3082 21.1685 65.9943 20.802 65.3423 20.802H58.5819C57.9299 20.802 57.616 21.1685 57.616 21.9015V30.3344C57.616 31.0681 57.9299 31.4346 58.5819 31.4346H65.3423C65.9943 31.4346 66.3082 31.0681 66.3082 30.3344V21.9015Z" fill="#FFD1CD"/>
<path d="M82.2067 18.2351H85.1045V33.9999H80.0821L73.7562 20.8012H73.515V33.9999H70.6172V18.2351H75.6154L81.9655 31.4338H82.2067V18.2351Z" fill="white"/>
<path d="M101 23.7346H98.1032V21.9015C98.1032 21.1685 97.7893 20.802 97.1372 20.802H90.3768C89.7248 20.802 89.4109 21.1685 89.4109 21.9015V30.3344C89.4109 31.0681 89.7248 31.4346 90.3768 31.4346H97.1372C97.7893 31.4346 98.1032 31.0681 98.1032 30.3344V27.7675H93.757V25.2013H101V30.3344C101 32.8321 99.8175 34.0007 97.1372 34.0007H90.3768C87.6965 34.0007 86.5137 32.8321 86.5137 30.3344V21.9015C86.5137 19.4038 87.6965 18.2351 90.3768 18.2351H97.1372C99.8175 18.2351 101 19.4038 101 21.9015V23.7346Z" fill="white"/>
<path d="M65.9285 14.7898H63.2891V17.5093H65.9285V14.7898Z" fill="#FFD1CD"/>
<path d="M63.2762 12.0703H60.6367V14.7898H63.2762V12.0703Z" fill="#FFD1CD"/>
<path d="M60.6355 14.7898H57.9961V17.5093H60.6355V14.7898Z" fill="#FFD1CD"/>
<g filter="url(#filter0_d_2425_22906)">
<path d="M13.5278 30.7351H10.4531V33.9998H13.5278V30.7351Z" fill="#FFD1CD"/>
<path d="M13.5278 26.8936H10.4531V30.1583H13.5278V26.8936Z" fill="#FFD1CD"/>
<path d="M13.5278 23.0518H10.4531V26.3165H13.5278V23.0518Z" fill="#FFD1CD"/>
<path d="M17.0122 30.7351H13.9375V33.9998H17.0122V30.7351Z" fill="#FFD1CD"/>
<path d="M17.0122 26.8936H13.9375V30.1583H17.0122V26.8936Z" fill="#FFD1CD"/>
<path d="M17.0122 23.0518H13.9375V26.3165H17.0122V23.0518Z" fill="#FFD1CD"/>
<path d="M17.0122 19.2097H13.9375V22.4744H17.0122V19.2097Z" fill="#FFD1CD"/>
<path d="M17.0122 15.3679H13.9375V18.6326H17.0122V15.3679Z" fill="#FFD1CD"/>
<path d="M17.0122 11.5256H13.9375V14.7903H17.0122V11.5256Z" fill="#FFD1CD"/>
<path d="M17.0122 7.68408H13.9375V10.9488H17.0122V7.68408Z" fill="#FFD1CD"/>
<path d="M17.0122 3.8418H13.9375V7.1065H17.0122V3.8418Z" fill="#FFD1CD"/>
<path d="M13.5278 19.2097H10.4531V22.4744H13.5278V19.2097Z" fill="#FFD1CD"/>
<path d="M13.5278 15.3679H10.4531V18.6326H13.5278V15.3679Z" fill="#FFD1CD"/>
<path d="M13.5278 11.5256H10.4531V14.7903H13.5278V11.5256Z" fill="#FFD1CD"/>
<path d="M13.5278 7.68408H10.4531V10.9488H13.5278V7.68408Z" fill="#FFD1CD"/>
<path d="M13.5278 3.8418H10.4531V7.1065H13.5278V3.8418Z" fill="#FFD1CD"/>
<path d="M10.0435 30.7351H6.96875V33.9998H10.0435V30.7351Z" fill="white"/>
<path d="M10.0435 26.8936H6.96875V30.1583H10.0435V26.8936Z" fill="white"/>
<path d="M10.0435 23.0518H6.96875V26.3165H10.0435V23.0518Z" fill="white"/>
<path d="M10.0435 19.2097H6.96875V22.4744H10.0435V19.2097Z" fill="white"/>
<path d="M10.0435 15.3679H6.96875V18.6326H10.0435V15.3679Z" fill="white"/>
<path d="M10.0435 11.5256H6.96875V14.7903H10.0435V11.5256Z" fill="white"/>
<path d="M10.0435 7.68408H6.96875V10.9488H10.0435V7.68408Z" fill="white"/>
<path d="M10.0435 3.8418H6.96875V7.1065H10.0435V3.8418Z" fill="#FFD1CD"/>
<path d="M6.5591 30.7351H3.48438V33.9998H6.5591V30.7351Z" fill="white"/>
<path d="M6.5591 26.8936H3.48438V30.1583H6.5591V26.8936Z" fill="white"/>
<path d="M6.5591 23.0518H3.48438V26.3165H6.5591V23.0518Z" fill="white"/>
<path d="M6.5591 19.2097H3.48438V22.4744H6.5591V19.2097Z" fill="white"/>
<path d="M6.5591 15.3679H3.48438V18.6326H6.5591V15.3679Z" fill="white"/>
<path d="M6.5591 11.5256H3.48438V14.7903H6.5591V11.5256Z" fill="white"/>
<path d="M6.5591 7.68408H3.48438V10.9488H6.5591V7.68408Z" fill="#FFD1CD"/>
<path d="M6.5591 3.8418H3.48438V7.1065H6.5591V3.8418Z" fill="#FFD1CD"/>
<path d="M10.0435 0H6.96875V3.26471H10.0435V0Z" fill="#FFD1CD"/>
<path d="M6.5591 0H3.48438V3.26471H6.5591V0Z" fill="#FFD1CD"/>
<path d="M3.07472 30.7351H0V33.9998H3.07472V30.7351Z" fill="white"/>
<path d="M3.07472 26.8936H0V30.1583H3.07472V26.8936Z" fill="white"/>
<path d="M3.07472 23.0518H0V26.3165H3.07472V23.0518Z" fill="white"/>
<path d="M3.07472 19.2097H0V22.4744H3.07472V19.2097Z" fill="white"/>
</g>
<path d="M98.3883 10.4661H24.1211V10.9073H98.3883V10.4661Z" fill="#FFD1CD"/>
</g>
<defs>
<filter id="filter0_d_2425_22906" x="-4" y="0" width="25.0117" height="41.9998" filterUnits="userSpaceOnUse" color-interpolation-filters="sRGB">
<feFlood flood-opacity="0" result="BackgroundImageFix"/>
<feColorMatrix in="SourceAlpha" type="matrix" values="0 0 0 0 0 0 0 0 0 0 0 0 0 0 0 0 0 0 127 0" result="hardAlpha"/>
<feOffset dy="4"/>
<feGaussianBlur stdDeviation="2"/>
<feComposite in2="hardAlpha" operator="out"/>
<feColorMatrix type="matrix" values="0 0 0 0 0 0 0 0 0 0 0 0 0 0 0 0 0 0 0.25 0"/>
<feBlend mode="normal" in2="BackgroundImageFix" result="effect1_dropShadow_2425_22906"/>
<feBlend mode="normal" in="SourceGraphic" in2="effect1_dropShadow_2425_22906" result="shape"/>
</filter>
<clipPath id="clip0_2425_22906">
<rect width="101" height="34" fill="white"/>
</clipPath>
</defs>
</svg>
